<svg height="512pt" viewBox="-103 0 512 512.00118" width="512pt" xmlns="http://www.w3.org/2000/svg"><path d="m48.835938 511.347656c-12.191407-2.867187-19.75-15.070312-16.882813-27.261718l43.9375-186.835938c2.867187-12.1875 15.070313-19.746094 27.257813-16.878906 12.191406 2.863281 19.75 15.070312 16.882812 27.257812l-43.9375 186.839844c-2.871094 12.207031-15.085938 19.742188-27.257812 16.878906zm0 0" fill="#5f6e9b"/><path d="m170.691406 494.515625-43.9375-186.839844c-2.863281-12.1875 4.691406-24.390625 16.882813-27.257812 12.183593-2.867188 24.394531 4.691406 27.257812 16.878906l43.9375 186.835937c2.867188 12.191407-4.691406 24.394532-16.878906 27.261719-12.164063 2.859375-24.386719-4.664062-27.261719-16.878906zm0 0" fill="#414b82"/><g fill="#ffb69e"><path d="m142.984375 171.625-.804687-25.765625h-36.207032l-.992187 25.765625zm0 0"/><path d="m66.792969 136.589844 2.855469-26.609375-20.378907-27.917969-14.789062-68.3125c-2.035157-9.410156-11.316407-15.386719-20.730469-13.351562-9.410156 2.039062-15.386719 11.316406-13.351562 20.730468l15.566406 71.921875c.515625 2.382813 1.527344 4.628907 2.964844 6.597657l22.804687 30.453124zm0 0"/><path d="m252.96875 271.082031-42.289062-44.816406-4.878907-14.964844s-21.445312-6.144531-21.445312-6.039062l-10.90625 19.304687 5.289062 16.226563c.796875 2.445312 2.128907 4.6875 3.894531 6.5625l44.96875 47.65625c6.617188 7.015625 17.65625 7.316406 24.648438.71875 7.003906-6.609375 7.324219-17.644531.71875-24.648438zm0 0"/></g><path d="m188.421875 157.996094c-4.316406-12.136719-14.972656-12.136719-14.972656-12.136719h-31.269531c.441406 9.777344-8.632813 18.105469-18.105469 18.105469-10.148438 0-17.664063-8.296875-18.105469-18.105469h-10.132812l-26.1875-35.878906-27.914063 20.125 31.636719 42.25v135.609375h100.074218v-83.398438l32.355469-13.261718zm0 0" fill="#64afff"/><path d="m162.566406 90.945312c0 21.628907-17.53125 39.160157-39.15625 39.160157s-39.15625-17.53125-39.15625-39.160157c0-21.625 17.53125-39.15625 39.15625-39.15625s39.15625 17.53125 39.15625 39.15625zm0 0" fill="#ffb69e"/><path d="m259.375 242.21875 6.035156 18.332031-125.53125 41.3125-6.035156-18.335937zm0 0" fill="#55879b"/><path d="m165.539062 266.058594c-.230468-1.585938-.613281-3.175782-1.167968-4.753906-4.347656-12.425782-17.898438-19.414063-30.542969-15.742188-5.164063 1.496094-9.453125 4.496094-12.554687 8.367188-4.277344 5.339843-9.863282 9.484374-16.363282 11.625l-.671875.21875c-7.929687 2.609374-16.472656 2.335937-24.332031-.480469-10.949219-3.921875-23.246094-4.339844-35.148438-.371094-27.480468 9.167969-42.878906 38.917969-34.472656 66.636719 8.800782 29.019531 39.695313 44.960937 68.335938 35.535156 1.519531-.5 3.003906-1.0625 4.445312-1.683594zm0 0" fill="#e64937"/><path d="m306.515625 243.730469c-.878906-2.667969-3.328125-4.507813-6.136719-4.609375l-44.65625-4.046875c-5.507812-.195313-9.527344 5.15625-7.800781 10.394531l5.140625 15.625c1.195312 3.636719 5.113281 5.613281 8.75 4.414062l40.429688-13.304687c3.519531-1.160156 5.433593-4.953125 4.273437-8.472656zm0 0" fill="#87afb9"/><path d="m165.53125 266.0625c-5.515625-4.054688-13.011719-5.121094-19.59375-2.15625-3.824219 1.722656-6.808594 4.507812-8.78125 7.835938-2.71875 4.597656-6.582031 8.410156-11.367188 10.773437l-.496093.242187c-5.839844 2.886719-12.46875 3.609376-18.847657 2.292969-8.886718-1.832031-18.433593-.808593-27.191406 3.5625-20.222656 10.089844-28.863281 34.753907-19.332031 55.246094 4.820313 10.367187 13.296875 17.800781 23.144531 21.546875 10.503906-4.503906 18.933594-12.050781 24.582032-21.253906 4.585937-7.464844 11.527343-13.1875 19.847656-15.925782l.023437-.007812c4.972657-1.636719 10.246094-2.226562 15.441407-1.582031 6.871093.847656 13.171874-1.449219 16.125-6.554688 1.828124-3.164062 2.070312-6.945312.980468-10.691406-2.777344-9.539063-1.414062-19.703125 3.050782-28.578125 2.238281-4.449219 3.160156-9.578125 2.414062-14.75zm0 0" fill="#c8e6eb"/></svg>