<svg height="512" viewBox="0 0 512 512" width="512" xmlns="http://www.w3.org/2000/svg"><g id="Flat"><path d="m488 248.87a55.831 55.831 0 0 1 -16.36 39.49l-31.64 31.64v40h-40v-56l48-48-16.8-9.6-39.2-22.4v-72h16l53.03 47.73 8.48 7.63a55.841 55.841 0 0 1 18.49 41.51z" fill="#fec9a3"/><path d="m461.03 199.73c-9.46 15.53-20.79 33.64-29.83 46.67l-39.2-22.4v-72h16z" fill="#f36100"/><path d="m408 152-32-112h-64l-8 40-8 16 16 8v16a8 8 0 0 0 8 8h24l8 24z" fill="#fec9a3"/><path d="m384 328a156.706 156.706 0 0 1 -19.71 22.35 126.009 126.009 0 0 1 -32.07 21.8c-13.78 6.54-29.06 10.83-46.29 13.29l-25.47 3.64-20.46 2.92-48 80-32-24 32.54-84.6a40 40 0 0 1 27.63-24.44l16.99-4.25 31.58-7.9 27.26-6.81-23.72-10.78-43.06-19.57-21.22-9.65-56 64-32-16 43.48-72.47a59.851 59.851 0 0 1 78.09-22.74l7.04 3.52 29.48 14.74 24.23 12.11 17.68 8.84z" fill="#fec9a3"/><path d="m400.47 296.7a213.334 213.334 0 0 1 -16.47 31.3l-64-56v-56l-50.72-21.13-45.28-18.87-40-112-24-8-8-32h34.9a32 32 0 0 1 29.41 19.39l39.69 92.61 26.35 6.59 37.65 9.41h88s24.83 68.28-7.53 144.7z" fill="#fec9a3"/><path d="m392 96-32-40h-48a16 16 0 0 1 -16-16 16 16 0 0 1 16-16h48a32 32 0 0 1 32 32z" fill="#ffb531"/><path d="m112 464v24h72l8-16-32-24z" fill="#bfbfbd"/><path d="m120 328-48 16v24h64l16-24z" fill="#bfbfbd"/><path d="m384 328a156.706 156.706 0 0 1 -19.71 22.35 126.009 126.009 0 0 1 -32.07 21.8c-13.78 6.54-29.06 10.83-46.29 13.29l-25.47 3.64-7.74-18.05-15.56-36.32 31.58-7.9 27.26-6.81-23.72-10.78-43.06-19.57 19.39-53.34 29.48 14.74 24.23 12.11 17.68 8.84 51.98 45.48z" fill="#34507b"/><path d="m384 328a156.706 156.706 0 0 1 -19.71 22.35 126.009 126.009 0 0 1 -32.07 21.8c-13.78 6.54-29.06 10.83-46.29 13.29l-25.47 3.64-7.74-18.05c43.27-12.71 83.23-30.08 119.26-53.55z" fill="#2f486e"/><path d="m72 368 24 16v48l16 16v40h-88v-464h128l8 32v32l6.95 20.84 9.05 27.16-32 40 8 32-80 88z" fill="#92563a"/><path d="m72 368 24 16v48l16 16v40h-88v-203.86c53.94-42.05 103.56-99.22 142.95-175.3l9.05 27.16-32 40 8 32-80 88z" fill="#875036"/><g fill="#804a32"><path d="m56 208a8 8 0 0 1 -5.657-13.657l35.363-35.363-12.362-18.542a8 8 0 1 1 13.312-8.876l16 24a8 8 0 0 1 -1 10.095l-40 40a7.976 7.976 0 0 1 -5.656 2.343z"/><path d="m136 120a8 8 0 0 1 -5.657-13.657l24-24a8 8 0 0 1 11.314 11.314l-24 24a7.976 7.976 0 0 1 -5.657 2.343z"/><path d="m56 64a8 8 0 0 1 -5.657-13.657l32-32a8 8 0 1 1 11.314 11.314l-32 32a7.976 7.976 0 0 1 -5.657 2.343z"/><path d="m72 464a8 8 0 0 1 -5.657-13.657l24-24a8 8 0 0 1 11.314 11.314l-24 24a7.976 7.976 0 0 1 -5.657 2.343z"/><path d="m56 392a8 8 0 0 1 -5.657-13.657l16-16a8 8 0 0 1 11.314 11.314l-16 16a7.976 7.976 0 0 1 -5.657 2.343z"/><path d="m64 256a8 8 0 0 1 -5.657-13.657l32-32a8 8 0 0 1 11.314 11.314l-32 32a7.976 7.976 0 0 1 -5.657 2.343z"/><path d="m64 112a8 8 0 0 1 -5.657-13.657l16-16a8 8 0 0 1 11.314 11.314l-16 16a7.976 7.976 0 0 1 -5.657 2.343z"/></g><path d="m417.09 211.7a210.515 210.515 0 0 1 -33.09 116.3l-49.92-43.68-14.08-12.32v-56l-50.72-21.13 13.07-52.28 37.65 9.41h88s8.76 24.1 9.09 59.7z" fill="#fa6d00"/><path d="m417.09 211.7a210.515 210.515 0 0 1 -33.09 116.3l-49.92-43.68a459.675 459.675 0 0 0 83.01-72.62z" fill="#f86400"/><path d="m364.29 350.35a126.009 126.009 0 0 1 -32.07 21.8l-63.48-45.34 27.26-6.81z" fill="#353f52"/><path d="m302.32 263.16-6.32 56.84-23.72-10.78 5.81-58.17z" fill="#353f52"/><path d="m400.47 296.7a213.334 213.334 0 0 1 -16.47 31.3l-64-56v-24l80 48z" fill="#353f52"/><path d="m440 344v48a16 16 0 0 1 -16 16h-24a15.986 15.986 0 0 1 -15.99-15.61c-.01-.13-.01-.26-.01-.39v-64z" fill="#353f52"/><path d="m440 348.96v43.04a16 16 0 0 1 -16 16h-24a15.986 15.986 0 0 1 -15.99-15.61 462.763 462.763 0 0 0 55.99-43.43z" fill="#253555"/></g></svg>