<svg id="Layer_1" enable-background="new 0 0 512.222 512.222" height="512" viewBox="0 0 512.222 512.222" width="512" xmlns="http://www.w3.org/2000/svg"><g><g><g><circle cx="170.728" cy="471.451" fill="#b4d7dc" r="17.517"/></g><g><path d="m242.636 317.718c-8.844-7.594-9.857-20.919-2.264-29.762l73.148-85.191 38.882-90.767c4.59-10.715 16.995-15.679 27.711-11.09 10.714 4.59 15.68 16.997 11.09 27.711l-40.158 93.747c-.846 1.975-1.988 3.808-3.387 5.438l-75.259 87.65c-7.592 8.841-20.916 9.86-29.763 2.264z" fill="#eb9b81"/></g><g><path d="m456.739 497.543-51.973-112.089c-1.728-3.725-2.523-7.814-2.318-11.915l4.772-95.734 26.556-24.034 24.402 18.772-4.829 97.275 49.344 106.418c5.884 12.69.367 27.747-12.323 33.631-12.663 5.871-27.735.392-33.631-12.324z" fill="#414b82"/></g><g><path d="m323.245 512.124c-13.935-1.217-24.245-13.499-23.028-27.433l10.898-124.845c.174-1.998.585-3.969 1.225-5.87l33.403-99.334c4.459-13.258 18.82-20.39 32.079-15.933 13.258 4.458 20.391 18.821 15.933 32.079l-32.441 96.471-10.636 121.837c-1.223 14.017-13.584 24.24-27.433 23.028z" fill="#5f6e9b"/></g><path d="m418.629 117.175c-4.257-16.724-21.266-26.831-37.99-22.573l-54.002 13.746c-16.724 4.257-26.831 21.266-22.573 37.99l31.312 123.007c4.549 17.872 22.725 28.672 40.597 24.123l82.205-20.926z" fill="#64afff"/><ellipse cx="325.544" cy="46.258" fill="#ffb69e" rx="46.256" ry="46.256" transform="matrix(.621 -.784 .784 .621 87.085 272.656)"/><g><path d="m300.666 222.368c-4.91-1.515-10.108 1.234-11.623 6.139l-72.555 235.002c-2.067 6.695-8.256 11.261-15.262 11.261h-20.487c-14.291 0-21.397 17.531-10.978 27.312 6.699 6.289 15.713 10.14 25.627 10.14 20.684 0 29.563-11.591 37.452-37.452l73.964-240.78c1.515-4.904-1.234-10.108-6.138-11.622z" fill="#6c9baa"/></g><g><path d="m267.931 275.474c-7.049-9.283-5.238-22.523 4.045-29.572l63.933-48.548 10.295-29.556 25.598-9.355 13.985 24.042-12.11 34.769c-1.366 3.922-3.859 7.355-7.168 9.866l-69.005 52.399c-9.25 7.024-22.498 5.273-29.573-4.045z" fill="#ffb69e"/></g><g><path d="m389.568 107.465c-11.008-3.835-23.039 1.981-26.874 12.989l-16.491 47.344 39.583 14.687 16.77-48.147c3.835-11.008-1.98-23.039-12.988-26.873z" fill="#4699f2"/></g></g><ellipse cx="45.826" cy="297.811" fill="#373c41" rx="38.653" ry="17.431"/><g><path d="m20.752 297.811c-3.314 0-6-2.686-6-6v-89.495h12v89.495c0 3.314-2.686 6-6 6z" fill="#b48255"/></g><path d="m64.041 210.192-42.384-11.642c-3.475-.955-6.905 1.66-6.905 5.264v23.983c0 3.604 3.43 6.219 6.905 5.264l42.384-11.642c5.706-1.567 5.706-9.66 0-11.227z" fill="#e64937"/></g></svg>