<svg id="Layer_1" enable-background="new 0 0 510.949 510.949" height="512" viewBox="0 0 510.949 510.949" width="512" xmlns="http://www.w3.org/2000/svg"><path d="m253.05 469.632-52.313-109.009-98.947-2.513c-11.584-.294-20.736-9.923-20.442-21.508.294-11.584 9.91-20.736 21.508-20.442l111.777 2.839c7.875.2 14.975 4.794 18.384 11.897l57.866 120.58c5.014 10.447.609 22.98-9.838 27.994-10.515 5.046-23.013.543-27.995-9.838z" fill="#414b82"/><path d="m411.809 366.301h-67.048c-26.159 0-50.267-13.107-64.488-35.063l-38.424-59.317 8.393-5.437 38.424 59.317c12.371 19.098 33.342 30.499 56.096 30.499h67.048v10.001z" fill="#c8e6eb"/><path d="m137.097 205.5-44.331-1.626c-15.194-.557-27.638 11.967-27.003 27.142l5.394 128.949c.589 14.08 13.949 24.057 27.59 20.684l58.545-14.474 4.902-133.668c.528-14.387-10.708-26.479-25.097-27.007z" fill="#64afff"/><ellipse cx="137.469" cy="152.971" fill="#ffb69e" rx="38.592" ry="38.592" transform="matrix(.924 -.382 .382 .924 -48.017 64.129)"/><g fill="#69280f"><path d="m88.021 463.018h-14.358c-2.635 0-4.772 2.136-4.772 4.771v8.982c0 2.635 2.136 4.772 4.772 4.772h14.358c2.635 0 4.772-2.136 4.772-4.772v-8.982c0-2.635-2.136-4.771-4.772-4.771z"/><path d="m191.737 463.018h-14.358c-2.635 0-4.772 2.136-4.772 4.771v8.982c0 2.635 2.136 4.772 4.772 4.772h14.358c2.635 0 4.772-2.136 4.772-4.772v-8.982c-.001-2.635-2.137-4.771-4.772-4.771z"/><path d="m426.364 464.097h-14.358c-2.635 0-4.772 2.136-4.772 4.771v8.983c0 2.635 2.136 4.771 4.772 4.771h14.358c2.635 0 4.772-2.136 4.772-4.771v-8.983c-.001-2.635-2.137-4.771-4.772-4.771z"/></g><path d="m495.448 28.327h-10.02c-8.561 0-15.501 6.94-15.501 15.501v260.465c0 8.561 6.94 15.5 15.501 15.5h10.02c8.561 0 15.501-6.94 15.501-15.5v-260.465c0-8.562-6.94-15.501-15.501-15.501z" fill="#46738c"/><path d="m405.612 373.317c-8.476 0-15.347 6.871-15.347 15.347v69.347c0 8.476 6.871 15.347 15.347 15.347h105.337v-100.041z" fill="#965028"/><path d="m216.5 295.996-6.158-13.354c-1.19-2.582-.063-5.639 2.519-6.83l45.809-21.124c2.582-1.19 5.639-.063 6.83 2.519l6.158 13.354c1.19 2.582.063 5.639-2.519 6.83l-45.809 21.124c-2.582 1.19-5.639.062-6.83-2.519z" fill="#87afb9"/><path d="m129.013 307.379-16.965-27.796 6.666-21.458 22.215 1.653 12.192 19.977 58.531-5.987c9.607-.979 18.19 6.009 19.173 15.615.982 9.606-6.008 18.19-15.615 19.173l-69.494 7.108c-6.724.688-13.208-2.56-16.703-8.285z" fill="#ffb69e"/><path d="m140.929 259.778-24.858-40.729c-5.031-8.243-15.792-10.847-24.034-5.816-8.243 5.031-10.847 15.791-5.816 24.033l25.826 42.316z" fill="#4699f2"/><path d="m477.085 344.504h-67.168c-4.091 0-7.408 3.317-7.408 7.408v13.997c0 4.091 3.317 7.408 7.408 7.408h67.168c4.091 0 7.408-3.317 7.408-7.408v-13.997c0-4.091-3.317-7.408-7.408-7.408z" fill="#87afb9"/><path d="m225.296 372.828c0-20.163-16.345-36.508-36.508-36.508h-108.664l-20.762-97.805c-2.942-13.86-15.179-23.772-29.348-23.772-19.077 0-33.31 17.571-29.348 36.232l43.576 205.275c1.946 9.168 10.041 15.724 19.413 15.724h.831 44.435 100.07c9.005 0 16.305-7.3 16.305-16.305z" fill="#965028"/></svg>