<svg height="512" viewBox="0 0 512 512" width="512" xmlns="http://www.w3.org/2000/svg"><g id="Flat"><path d="m375.938 239.008-5.933-47.463a24 24 0 0 0 -27.76-20.7l-14.578 2.484 2.631 15.783 14.577-2.485a8 8 0 0 1 9.254 6.9l1.28 10.235-32.832 10.943-16.083-12.636a24.036 24.036 0 0 0 -18.773-4.8l-17.036 2.839 2.63 15.782 17.036-2.839a8.03 8.03 0 0 1 6.258 1.6l50.449 39.639a8 8 0 0 0 8.52.864l16-8a8 8 0 0 0 4.36-8.146zm-22.981-.43-15.309-12.028 19.784-6.595 1.928 15.421z" fill="#f35244"/><path d="m271.083 79.607a32 32 0 0 0 -61.675-17.015l-35.408 43.741 38.333 18.667 19.667-21 8.561 4.518a12.223 12.223 0 0 0 15.714-3.8c5.458-7.779 12.7-18.5 14.038-22.471z" fill="#fec9a3"/><path d="m251.812 60.375-13.312-8.875-11.125 17.015-4.625-19.015-15.522 3.881 9.011 36.559a8.115 8.115 0 0 0 .358 1.089l.009.023v.007l8.988 21.97 14.808-6.058-7.389-18.071z" fill="#353f52"/><path d="m275.25 79.75-51.53-15.98-20.22-6.27s3.57-40.31 45.97-32.46c11.37 2.1 18.49 7.01 22.83 13.07 11.85 16.54 2.95 41.64 2.95 41.64z" fill="#4d5e78"/><path d="m275.25 79.75-51.53-15.98a335.064 335.064 0 0 0 48.58-25.66c11.85 16.54 2.95 41.64 2.95 41.64z" fill="#435269"/><path d="m104 328a80 80 0 1 0 80 80 80 80 0 0 0 -80-80zm0 128a48 48 0 1 1 48-48 48 48 0 0 1 -48 48z" fill="#353f52"/><path d="m408 272a80 80 0 1 0 80 80 80 80 0 0 0 -80-80zm0 128a48 48 0 1 1 48-48 48 48 0 0 1 -48 48z" fill="#353f52"/><path d="m96 416a8 8 0 0 1 -6.576-12.554l72-104a8.009 8.009 0 0 1 4.338-3.126l192-56a8 8 0 0 1 9.395 4.1l8 16a8 8 0 0 1 -1.5 9.235l-128 128a8 8 0 0 1 -4.774 2.294l-144 16a7.981 7.981 0 0 1 -.883.051zm76.965-105.114-60.385 87.223 123.75-13.75 121.936-121.939-2.435-4.871z" fill="#f35244"/><path d="m180 245.538h16v164.924h-16z" fill="#f35244" transform="matrix(.776 -.631 .631 .776 -164.744 191.986)"/><circle cx="240" cy="392" fill="#b0b0ae" r="32"/><path d="m248 400-32 8 8 24h41.167a11.057 11.057 0 0 0 9.889-6.111 11.056 11.056 0 0 0 -4.945-14.833z" fill="#bfbfbd"/><path d="m320 364.16a10.031 10.031 0 0 1 -10.01 10.03 10.552 10.552 0 0 1 -1.67-.14l-33.47-5.58-2.85-.47-3.86-15.45-4.14-16.55h32l21.06 21.06a10.035 10.035 0 0 1 2.94 7.1z" fill="#bfbfbd"/><path d="m336 180a19.989 19.989 0 0 1 -37.99 8.7c-5.5-.85-11.83-1.96-18.68-3.37a430.947 430.947 0 0 1 -47.25-12.26c-9.43-3.06-19.38-6.68-30.08-11.07-3.21 5.4-8.31 14.9-11.13 19.82-14.06 24.56-22.87 42.18-22.87 42.18l-72 8c0-41.22 15.73-79.81 29.18-105.28a45.106 45.106 0 0 1 4.52-6.93c.07-.09.13-.17.2-.25 7.35-9.18 19.12-18.85 36.88-17.27a49.949 49.949 0 0 1 9.22 1.73s6.37 3.79 32 16c7.58 3.61 20.89 8.75 35.75 14.17 34.05 12.41 76.24 26.23 76.24 26.23a20.009 20.009 0 0 1 16.01 19.6z" fill="#feb784"/><path d="m243.75 134.17-11.67 38.9c-9.43-3.06-19.38-6.68-30.08-11.07-3.21 5.4-8.31 14.9-11.13 19.82-14.06 24.56-22.87 42.18-22.87 42.18l-72 8c0-1.9.03-3.8.1-5.69 1.35-39.06 16.25-75.3 29.08-99.59a45.106 45.106 0 0 1 4.52-6.93c.07-.09.13-.17.2-.25 7.35-9.18 19.12-18.85 36.88-17.27a49.949 49.949 0 0 1 9.22 1.73s6.37 3.79 32 16c4.77 2.27 11.82 5.15 20.09 8.33 4.86 1.86 10.16 3.83 15.66 5.84z" fill="#f36100"/><path d="m243.75 134.17-11.67 38.9c-9.43-3.06-19.38-6.68-30.08-11.07-3.21 5.4-8.31 14.9-11.13 19.82-14.06 24.56-22.87 42.18-22.87 42.18l-72 8c0-1.9.03-3.8.1-5.69 47.21-23.79 92.41-55.83 131.99-97.98 4.86 1.86 10.16 3.83 15.66 5.84z" fill="#eb5600"/><path d="m296 336h-32l-14.25-47.51-4.6-15.33-5.15-17.16-80 8 37.1 23.18 15.95 9.97c.72.45 1.41.93 2.09 1.44a31.94 31.94 0 0 1 11.99 17.94l15.41 61.62 4.52 18.11.94 3.74-32 8-1.53-5.12-4.68-15.57-17.79-59.31-22-12.83-13.86-8.09-25.59-14.93a69.642 69.642 0 0 1 -34.55-60.15l72-8 75.73-5.83a32.008 32.008 0 0 1 33.83 25.63l3.76 18.81 3.15 15.75 9.65 48.21v.01z" fill="#353f52"/><path d="m408 352a8 8 0 0 1 -10.593-3.972l-36.629-80.583-7.933-15.867 14.31-7.156 8 16c.045.089.087.178.128.267l36.689 80.718a8 8 0 0 1 -3.972 10.593z" fill="#f35244"/><path d="m296 204a19.987 19.987 0 0 1 -39.92 1.49c-26.36-4.99-47.82-13.5-65.21-23.67a137.211 137.211 0 0 1 -21.14-15.55c-16.35-14.42-30.44-32.26-40.03-46.48.07-.09.13-.17.2-.25 7.35-9.18 19.12-18.85 36.88-17.27.4.57.81 1.15 1.22 1.73a153.445 153.445 0 0 0 29.79 34.21c4.18 3.61 8.52 7.01 13.01 10.27a265.144 265.144 0 0 0 69.2 35.52c9.19 1.8 16 10.28 16 20z" fill="#fec9a3"/><path d="m197.79 138.21-28.06 28.06c-16.35-14.42-30.44-32.26-40.03-46.48.07-.09.13-.17.2-.25 7.35-9.18 19.12-18.85 36.88-17.27.4.57.81 1.15 1.22 1.73a153.445 153.445 0 0 0 29.79 34.21z" fill="#fa6d00"/><g fill="#f35244"><path d="m245.15 273.16 4.6 15.33 34.72-10.13-3.15-15.75z"/><path d="m296 336h-11.31l-16.55 16.55 3.86 15.45 2.85.47 26.81-26.81z"/><path d="m294.12 326.58-9.43 9.42h11.31z"/></g></g></svg>